<svg width="136" height="16" fill="none" xmlns="http://www.w3.org/2000/svg"><g clip-path="url(#clip0_23_6512)"><g clip-path="url(#clip1_23_6512)"><path d="M24.387 9.516h-1.165v4.701h-1.867V1.256h3.351c2.475 0 3.887 1.484 3.887 4.054 0 2.02-.854 3.408-2.338 3.943l2.817 4.964h-2.075l-2.61-4.7zm-1.165-1.78h1.445c1.316 0 1.995-.853 1.995-2.394 0-1.54-.678-2.314-1.98-2.314h-1.46v4.709zm13.943 3.456a3.257 3.257 0 01-3.304 3.193h-.247c-2.044 0-3.32-1.333-3.32-3.664V7.848c0-2.314 1.276-3.631 3.335-3.631 2.06 0 3.409 1.317 3.409 3.631v2.163h-4.949v.742c0 1.333.575 1.94 1.596 1.94a1.596 1.596 0 001.724-1.5h1.756zM32.09 7.824v.838h3.193v-.838c0-1.333-.591-1.923-1.597-1.923-1.005 0-1.596.59-1.596 1.923zm6.376 3.369h1.772a1.524 1.524 0 001.444 1.596h.24c.942 0 1.484-.463 1.484-1.22 0-1.964-4.788-1.294-4.788-4.63 0-1.668 1.237-2.721 3.144-2.721a3 3 0 013.193 2.745c.008.122.008.245 0 .367h-1.756a1.349 1.349 0 00-1.197-1.484h-.296c-.798 0-1.3.43-1.3 1.11 0 1.85 4.788 1.132 4.788 4.628 0 1.724-1.221 2.873-3.24 2.873a3.193 3.193 0 01-3.472-2.88 3.063 3.063 0 01-.016-.384zm12.754 1.445v1.692h-.687c-1.947 0-3.088-1.245-3.088-3.265v-4.98h-1.373V4.49h1.373V2.143h1.74v2.314h1.82v1.596h-1.82v5.004c0 1.054.447 1.549 1.412 1.549l.623.032zm7.94-4.901v6.48H57.7l-.135-.909a2.393 2.393 0 01-2.163 1.15 2.833 2.833 0 01-3.025-3.018c0-2.003 1.389-3.016 3.536-3.016h1.428v-.687c0-1.149-.423-1.796-1.404-1.796a1.365 1.365 0 00-1.461 1.261H52.68a3.033 3.033 0 013.033-3.032h.28c2.09.048 3.168 1.325 3.168 3.567zm-1.795 2.235h-1.428c-1.086 0-1.716.503-1.716 1.468a1.364 1.364 0 001.3 1.437c.099.012.198.012.296 0a1.484 1.484 0 001.596-1.349v-.207l-.048-1.35zm10.631-5.515v9.76h-1.253l-.192-1.093a2.665 2.665 0 01-2.394 1.333c-1.692 0-2.745-1.205-2.745-3.87v-6.13h1.795v6.034c0 1.596.431 2.258 1.373 2.258s1.668-.798 1.668-2.258V4.457h1.748zm7.294-.072v1.78a2.969 2.969 0 00-1.204-.223c-1.221 0-1.996.798-1.996 2.258v6.018h-1.795V4.457h1.276l.2 1.15a2.705 2.705 0 012.498-1.35 2.77 2.77 0 011.022.128zm7.63 3.352v6.48h-1.468l-.128-.909a2.394 2.394 0 01-2.162 1.15 2.833 2.833 0 01-3.001-3.018c0-2.003 1.388-3.016 3.535-3.016h1.413v-.687c0-1.149-.431-1.796-1.413-1.796a1.357 1.357 0 00-1.46 1.261H76.44a3.025 3.025 0 013.073-3h.263c2.067.016 3.145 1.293 3.145 3.535zm-1.81 2.235h-1.413c-1.093 0-1.724.503-1.724 1.469a1.365 1.365 0 001.301 1.436c.098.012.198.012.296 0a1.492 1.492 0 001.596-1.365v-.191l-.056-1.35zm10.734-1.883v6.13h-1.796V8.184c0-1.596-.431-2.259-1.373-2.259s-1.668.798-1.668 2.259v6.033h-1.788v-9.76h1.27l.207 1.093a2.666 2.666 0 012.394-1.333c1.7 0 2.754 1.205 2.754 3.871zm6.512 4.549v1.692h-.678c-1.948 0-3.097-1.245-3.097-3.265v-4.98h-1.365V4.49h1.365V2.143h1.78v2.314h1.811v1.596h-1.811v5.004c0 1.054.447 1.549 1.404 1.549l.591.032zm5.674-2.242V5.088c0-2.626 1.437-3.99 3.791-3.99 2.355 0 3.68 1.317 3.775 3.902h-1.851c-.072-1.5-.743-2.147-1.924-2.147s-1.891.679-1.891 2.26v5.283c0 1.596.742 2.258 1.947 2.258s1.964-.662 1.964-2.163V8.8h-2.052V7.203h3.887V10.5c0 2.538-1.5 3.99-3.831 3.99-2.33 0-3.815-1.492-3.815-4.093zm16.186-5.939v9.76h-1.277l-.183-1.093a2.702 2.702 0 01-2.395 1.333c-1.684 0-2.737-1.205-2.737-3.87v-6.13h1.804v6.034c0 1.596.423 2.258 1.372 2.258.95 0 1.66-.798 1.66-2.258V4.457h1.756zm7.303-.071v1.78a2.93 2.93 0 00-1.198-.224c-1.221 0-2.003.798-2.003 2.259v6.018h-1.796V4.458h1.277l.208 1.149a3.129 3.129 0 013.512-1.205v-.016zm7.981.071v9.76h-1.277l-.184-1.093a2.692 2.692 0 01-2.394 1.333c-1.684 0-2.737-1.205-2.737-3.87v-6.13h1.795v6.034c0 1.596.423 2.258 1.373 2.258s1.66-.798 1.66-2.258V4.457h1.764zM8.226 2.9V1.449l.255.407c.415.607.838 1.205 1.261 1.812l.16.24a.335.335 0 00.415.103l1.78-.622 1.97-.67c.184-.083.383-.126.583-.129a1.062 1.062 0 01.854.431c.17.21.263.473.264.743 0 .318-.112.627-.32.87-.215.271-.422.558-.63.798-.207.24-.487.654-.75.973l-.95 1.301a.528.528 0 00-.096.136.343.343 0 00.08.415l.407.543.694.894c.2.247.392.502.583.75l.623.798c.149.172.265.37.343.583a.541.541 0 00.048.27v.08c-.009.21-.072.414-.184.591a1.118 1.118 0 01-1.253.535c-.343-.088-.662-.223-.99-.335l-2.082-.726-.799-.288a.416.416 0 00-.494.088c-.09.1-.167.21-.232.327a31.91 31.91 0 01-.798 1.102l-1.221 1.82a1.396 1.396 0 01-.447.518 1.63 1.63 0 01-.415.176H6.47a1.598 1.598 0 01-.383-.16 1.133 1.133 0 01-.511-.75 1.838 1.838 0 01-.04-.36V6.445c-.013-.389.07-.775.24-1.125a1.34 1.34 0 01.71-.678.543.543 0 00.287-.36c.066-.168.103-.346.112-.526V.435A.423.423 0 017.108.02h.256c.104.055.207.095.24.231v3.512c.007.4-.104.795-.32 1.133a1.23 1.23 0 01-.495.431.998.998 0 00-.495.662c-.042.17-.061.344-.056.52v8.22a.447.447 0 00.48.43h.103c.11-.054.2-.144.255-.255.08-.111.152-.231.224-.343l.43-.614 1.358-1.996a1.91 1.91 0 01.598-.662 1.18 1.18 0 01.838-.136c.333.095.66.207.982.335l1.963.679 1.086.375a.31.31 0 00.343-.104.383.383 0 00.088-.367 1.259 1.259 0 00-.264-.383c-.39-.519-.798-1.03-1.189-1.549-.39-.518-.614-.798-.942-1.22a1.38 1.38 0 01-.367-1.094c.017-.162.072-.318.16-.455.207-.303.439-.59.662-.886.224-.295.607-.798.91-1.213l.95-1.26a.278.278 0 00.072-.208.399.399 0 00-.383-.4.375.375 0 00-.136 0l-1.117.4c-.799.295-1.668.582-2.498.885-.274.12-.575.162-.87.12a1.07 1.07 0 01-.695-.367c-.311-.423-.598-.862-.902-1.293a.982.982 0 00-.151-.247zM3.277.02a.423.423 0 01.224.415v3.272c-.005.24.044.476.144.694a.59.59 0 00.31.295c.25.119.457.308.6.543.167.265.27.566.303.878v9.466a.343.343 0 01-.32.343.301.301 0 01-.313-.13.304.304 0 01-.046-.11.232.232 0 010-.103V6.404a1.484 1.484 0 00-.24-.798.678.678 0 00-.247-.271 1.469 1.469 0 01-.798-.99 2.617 2.617 0 01-.08-.558V.467A.431.431 0 013.03.02h.247z" fill="#2B2B2B"/><path d="M3.557 8.942v.854c0 .064 0 .064-.072.048l-1.277-.407c-.303-.088-.615-.16-.91-.264A1.133 1.133 0 01.5 8.28v-.502a1.173 1.173 0 01.862-.878c.343-.096.678-.208 1.014-.312l1.173-.343v.798l-.75.232-1.198.359a.383.383 0 00-.271.455.375.375 0 00.271.271c.535.16 1.07.32 1.597.463.113.057.234.097.359.12zm1.317-6.84v1.596a.479.479 0 01-.072.312.383.383 0 01-.36.127c-.175-.055-.239-.127-.27-.271a1.197 1.197 0 010-.24V.483a.367.367 0 01.23-.391.351.351 0 01.448.223v.791c.008.247.024.67.024.997zm1.325.009v1.692a.311.311 0 01-.288.335.335.335 0 01-.39-.263V.459A.36.36 0 015.83.06a.375.375 0 01.256.072.295.295 0 01.151.271l-.04 1.708z" fill="#2B2B2B"/><path d="M3.557 8.942a1.277 1.277 0 01-.344-.088 41.854 41.854 0 01-1.596-.463.383.383 0 01-.271-.455.375.375 0 01.271-.271l1.197-.36.75-.23-.007 1.867zM8.226 2.9a.95.95 0 01.183.248c.303.43.59.87.902 1.293.17.2.404.336.662.383.306.05.619.012.902-.112.799-.303 1.668-.59 2.498-.886l1.118-.399a.391.391 0 01.495.24.407.407 0 010 .135.278.278 0 01-.072.208l-.958 1.245c-.303.407-.614.798-.91 1.213-.295.415-.455.583-.662.886a1.037 1.037 0 00-.16.455 1.38 1.38 0 00.367 1.093c.328.4.63.798.942 1.221.311.423.798 1.03 1.19 1.549.11.11.2.24.263.383a.383.383 0 01-.088.367.311.311 0 01-.343.104l-1.086-.376-1.963-.678c-.321-.128-.65-.24-.982-.335a1.181 1.181 0 00-.838.136 1.9 1.9 0 00-.598.662L7.73 13.93l-.431.615h-.104c-.207 0-.263-.096-.32-.264a1.364 1.364 0 010-.255V6.404a1.11 1.11 0 01.137-.479.295.295 0 01.135-.104 2.02 2.02 0 00.95-1.388c.058-.233.093-.47.104-.71.024-.28 0-.511.024-.823z" fill="#D61516"/></g></g><defs><clipPath id="clip0_23_6512"><path fill="#fff" transform="translate(.5)" d="M0 0h135v16H0z"/></clipPath><clipPath id="clip1_23_6512"><path fill="#fff" transform="translate(.5 .02)" d="M0 0h135v15.962H0z"/></clipPath></defs></svg>