<svg width="159" height="47" fill="none" xmlns="http://www.w3.org/2000/svg"><path d="M119.702 37.46c.784 0 1.364.172 1.74.516.376.344.564.892.564 1.644V44h-.768l-.204-.912h-.048c-.28.352-.576.612-.888.78-.304.168-.728.252-1.272.252-.584 0-1.068-.152-1.452-.456-.384-.312-.576-.796-.576-1.452 0-.64.252-1.132.756-1.476.504-.352 1.28-.544 2.328-.576l1.092-.036v-.384c0-.536-.116-.908-.348-1.116-.232-.208-.56-.312-.984-.312-.336 0-.656.052-.96.156a6.297 6.297 0 00-.852.336l-.324-.792c.28-.152.612-.28.996-.384a4.264 4.264 0 011.2-.168zm.312 3.432c-.8.032-1.356.16-1.668.384-.304.224-.456.54-.456.948 0 .36.108.624.324.792.224.168.508.252.852.252.544 0 .996-.148 1.356-.444.36-.304.54-.768.54-1.392v-.576l-.948.036zm-5.295-3.324h1.152l-2.748 3.096L116.099 44h-1.224l-2.904-3.264V44h-1.056v-6.432h1.056v3.12l2.748-3.12zM104.2 41.492a13.907 13.907 0 01-.048 1.008c-.008.192-.016.344-.024.456l3.444-5.388h1.296V44h-.984v-4.296l.024-.612c.008-.208.016-.364.024-.468L104.512 44h-1.308v-6.432h.996v3.924zm-5.32-4.044c.793 0 1.429.276 1.909.828.488.552.732 1.384.732 2.496 0 1.096-.244 1.928-.732 2.496-.48.568-1.12.852-1.92.852-.496 0-.908-.092-1.236-.276a2.57 2.57 0 01-.756-.66h-.072c.016.136.032.308.048.516.016.208.024.388.024.54v2.64H95.82v-9.312h.864l.144.876h.048c.192-.28.444-.516.756-.708.312-.192.728-.288 1.248-.288zm-.191.888c-.656 0-1.12.184-1.392.552-.264.368-.404.928-.42 1.68v.204c0 .792.128 1.404.384 1.836.264.424.748.636 1.452.636.392 0 .712-.108.96-.324.256-.216.444-.508.564-.876.128-.376.192-.804.192-1.284 0-.736-.144-1.324-.432-1.764-.28-.44-.716-.66-1.308-.66zm-10.388 1.8c0-1.408.212-2.504.636-3.288.424-.792 1.108-1.288 2.052-1.488.52-.112 1.028-.212 1.524-.3s.96-.168 1.392-.24l.18.924c-.28.04-.596.092-.948.156-.352.056-.7.116-1.044.18-.344.056-.64.112-.888.168-.52.112-.932.384-1.236.816-.304.424-.476 1.088-.516 1.992h.072c.112-.152.264-.308.456-.468.2-.16.436-.296.708-.408.28-.112.596-.168.948-.168.832 0 1.46.268 1.884.804.424.536.636 1.232.636 2.088 0 .712-.124 1.308-.372 1.788s-.592.84-1.032 1.08c-.44.232-.952.348-1.536.348-.888 0-1.596-.34-2.124-1.02-.528-.68-.792-1.668-.792-2.964zm3 3.108c.52 0 .94-.168 1.26-.504.32-.336.48-.912.48-1.728 0-.656-.124-1.172-.372-1.548-.24-.384-.64-.576-1.2-.576-.352 0-.672.08-.96.24a2.796 2.796 0 00-.72.528c-.192.2-.328.368-.408.504 0 .392.028.772.084 1.14.056.368.152.7.288.996.144.288.34.52.588.696.256.168.576.252.96.252zm-6.954-5.784c.784 0 1.364.172 1.74.516.376.344.564.892.564 1.644V44h-.768l-.204-.912h-.048c-.28.352-.576.612-.888.78-.304.168-.728.252-1.272.252-.584 0-1.068-.152-1.452-.456-.384-.312-.576-.796-.576-1.452 0-.64.252-1.132.756-1.476.504-.352 1.28-.544 2.328-.576l1.092-.036v-.384c0-.536-.116-.908-.348-1.116-.232-.208-.56-.312-.984-.312-.336 0-.656.052-.96.156a6.297 6.297 0 00-.852.336l-.324-.792c.28-.152.612-.28.996-.384a4.264 4.264 0 011.2-.168zm.312 3.432c-.8.032-1.356.16-1.668.384-.304.224-.456.54-.456.948 0 .36.108.624.324.792.224.168.508.252.852.252.544 0 .996-.148 1.356-.444.36-.304.54-.768.54-1.392v-.576l-.948.036zm-7.604-3.42c.64.056 1.196.224 1.668.504.48.28.852.656 1.116 1.128.264.472.396 1.032.396 1.68 0 .968-.284 1.74-.852 2.316-.56.576-1.336.908-2.328.996v2.784h-1.032v-2.784c-.632-.056-1.188-.22-1.668-.492a2.962 2.962 0 01-1.116-1.128c-.264-.48-.396-1.044-.396-1.692 0-.976.28-1.752.84-2.328.568-.576 1.36-.904 2.376-.984V34.88h.996v2.592zm-.996.876c-.736.072-1.272.316-1.608.732-.336.408-.504.976-.504 1.704s.168 1.3.504 1.716c.344.416.88.66 1.608.732v-4.884zm.996 4.884c.72-.08 1.248-.328 1.584-.744.336-.416.504-.984.504-1.704s-.172-1.284-.516-1.692c-.336-.408-.86-.652-1.572-.732v4.872zM60.463 44h-1.224l1.836-2.7a2.806 2.806 0 01-.72-.3 1.658 1.658 0 01-.564-.588c-.144-.256-.216-.572-.216-.948 0-.616.208-1.084.624-1.404.416-.328.968-.492 1.656-.492h2.88V44h-1.056v-2.556h-1.56L60.463 44zm.132-4.524c0 .368.136.644.408.828.28.176.668.264 1.164.264h1.512v-2.124h-1.716c-.488 0-.84.096-1.056.288a.966.966 0 00-.312.744zm-4.819-2.016c.784 0 1.364.172 1.74.516.376.344.564.892.564 1.644V44h-.768l-.204-.912h-.048c-.28.352-.576.612-.888.78-.304.168-.728.252-1.272.252-.584 0-1.068-.152-1.452-.456-.384-.312-.576-.796-.576-1.452 0-.64.252-1.132.756-1.476.504-.352 1.28-.544 2.328-.576l1.092-.036v-.384c0-.536-.116-.908-.348-1.116-.232-.208-.56-.312-.984-.312-.336 0-.656.052-.96.156a6.297 6.297 0 00-.852.336l-.324-.792c.28-.152.612-.28.996-.384a4.264 4.264 0 011.2-.168zm.312 3.432c-.8.032-1.356.16-1.668.384-.304.224-.456.54-.456.948 0 .36.108.624.324.792.224.168.508.252.852.252.544 0 .996-.148 1.356-.444.36-.304.54-.768.54-1.392v-.576l-.948.036zm-9.332-3.324v2.676h3.492v-2.676h1.056V44h-1.056v-2.868h-3.492V44H45.7v-6.432h1.056zm-5.217 2.64c1.672 0 2.508.608 2.508 1.824 0 .6-.204 1.08-.612 1.44-.408.352-1.056.528-1.944.528h-2.916v-6.432h1.056v2.64h1.908zm1.452 1.884c0-.392-.14-.656-.42-.792-.272-.144-.656-.216-1.152-.216H39.63v2.064h1.812c.448 0 .816-.08 1.104-.24.296-.16.444-.432.444-.816zM36.533 44h-1.068v-5.556H33.57c-.104 1.352-.248 2.444-.432 3.276-.184.824-.428 1.424-.732 1.8-.304.376-.688.564-1.152.564-.104 0-.208-.008-.312-.024a.66.66 0 01-.24-.06v-.792c.048.016.1.028.156.036.056.008.112.012.168.012.432 0 .776-.46 1.032-1.38.264-.92.464-2.356.6-4.308h3.876V44zm-9.185-6.552c.552 0 1.024.12 1.416.36.4.24.704.58.912 1.02.216.432.324.94.324 1.524v.636h-4.404c.016.728.2 1.284.552 1.668.36.376.86.564 1.5.564.408 0 .768-.036 1.08-.108.32-.08.648-.192.984-.336v.924a4.723 4.723 0 01-.972.312c-.32.072-.7.108-1.14.108-.608 0-1.148-.124-1.62-.372a2.642 2.642 0 01-1.092-1.104c-.256-.496-.384-1.1-.384-1.812 0-.704.116-1.308.348-1.812.24-.504.572-.892.996-1.164.432-.272.932-.408 1.5-.408zm-.012.864c-.504 0-.904.164-1.2.492-.288.32-.46.768-.516 1.344h3.276c-.008-.544-.136-.984-.384-1.32-.248-.344-.64-.516-1.176-.516zm-9.992 1.824c0-1.408.212-2.504.636-3.288.424-.792 1.108-1.288 2.052-1.488.52-.112 1.028-.212 1.524-.3s.96-.168 1.392-.24l.18.924c-.28.04-.596.092-.948.156-.352.056-.7.116-1.044.18-.344.056-.64.112-.888.168-.52.112-.932.384-1.236.816-.304.424-.476 1.088-.516 1.992h.072c.112-.152.264-.308.456-.468.2-.16.436-.296.708-.408.28-.112.596-.168.948-.168.832 0 1.46.268 1.884.804.424.536.636 1.232.636 2.088 0 .712-.124 1.308-.372 1.788s-.592.84-1.032 1.08c-.44.232-.952.348-1.536.348-.888 0-1.596-.34-2.124-1.02-.528-.68-.792-1.668-.792-2.964zm3 3.108c.52 0 .94-.168 1.26-.504.32-.336.48-.912.48-1.728 0-.656-.124-1.172-.372-1.548-.24-.384-.64-.576-1.2-.576-.352 0-.672.08-.96.24a2.796 2.796 0 00-.72.528c-.192.2-.328.368-.408.504 0 .392.028.772.084 1.14.056.368.152.7.288.996.144.288.34.52.588.696.256.168.576.252.96.252zm-6.954-5.796c.553 0 1.025.12 1.417.36.4.24.704.58.912 1.02.216.432.324.94.324 1.524v.636h-4.404c.016.728.2 1.284.552 1.668.36.376.86.564 1.5.564.408 0 .768-.036 1.08-.108.32-.08.648-.192.984-.336v.924a4.723 4.723 0 01-.972.312c-.32.072-.7.108-1.14.108-.608 0-1.148-.124-1.62-.372a2.642 2.642 0 01-1.092-1.104c-.256-.496-.384-1.1-.384-1.812 0-.704.116-1.308.348-1.812.24-.504.572-.892.996-1.164.432-.272.932-.408 1.5-.408zm-.011.864c-.504 0-.904.164-1.2.492-.288.32-.46.768-.516 1.344h3.276c-.008-.544-.136-.984-.384-1.32-.248-.344-.64-.516-1.176-.516zM3.944 44l-2.82-7.512h-.048c.024.248.044.584.06 1.008.016.416.024.852.024 1.308V44H.164v-8.568H1.76l2.64 7.02h.048l2.688-7.02H8.72V44H7.652v-5.268c0-.416.008-.828.024-1.236l.06-.996h-.048L4.832 44h-.888zm148.919-19.616c-1.6 0-2.966-.341-4.096-1.024a6.635 6.635 0 01-2.528-2.784c-.576-1.173-.864-2.474-.864-3.904 0-1.258.288-2.464.864-3.616a7.399 7.399 0 012.528-2.848c1.088-.725 2.336-1.088 3.744-1.088 1.898 0 3.36.49 4.384 1.472 1.024.96 1.61 2.261 1.76 3.904 0 .704-.192 1.184-.576 1.44-.384.256-.939.384-1.664.384h-7.776c0 1.984.405 3.563 1.216 4.736.832 1.152 2.112 1.728 3.84 1.728.917 0 1.696-.192 2.336-.576.64-.405 1.248-1.077 1.824-2.016.106-.107.213-.16.32-.16.149 0 .277.043.384.128a.63.63 0 01.32.576.53.53 0 01-.064.288c-.662 1.067-1.504 1.899-2.528 2.496-1.003.576-2.144.864-3.424.864zm.992-9.28c1.088 0 1.664-.448 1.728-1.344 0-.981-.267-1.813-.8-2.496-.534-.682-1.291-1.024-2.272-1.024-1.088 0-1.984.438-2.688 1.312-.704.854-1.099 2.037-1.184 3.552h5.216zM117.1 24.096a.486.486 0 01-.384-.192.791.791 0 01-.128-.448c.021-.277.075-.437.16-.48.107-.064.299-.096.576-.096.555 0 .949-.096 1.184-.288.235-.192.373-.416.416-.672.043-.256.064-.661.064-1.216v-7.328c0-.554-.021-.96-.064-1.216-.021-.256-.149-.48-.384-.672-.235-.192-.629-.288-1.184-.288-.256 0-.448-.032-.576-.096-.128-.085-.192-.266-.192-.544 0-.128.043-.245.128-.352a.511.511 0 01.384-.224c1.387-.213 2.528-.49 3.424-.832.363-.106.608-.17.736-.192h.096c.341 0 .512.203.512.608v2.016h.096c.128-.128.448-.437.96-.928a5.115 5.115 0 011.728-1.152c.661-.256 1.408-.384 2.24-.384 1.024 0 1.909.224 2.656.672a3.977 3.977 0 011.664 1.792h.064c.832-.79 1.621-1.397 2.368-1.824.768-.426 1.749-.64 2.944-.64 1.451 0 2.603.438 3.456 1.312.853.875 1.28 2.027 1.28 3.456v6.816c0 .555.021.96.064 1.216s.181.48.416.672c.235.192.629.288 1.184.288h.192c.171 0 .299.032.384.096.085.064.139.224.16.48 0 .17-.053.32-.16.448a.401.401 0 01-.352.192 65.568 65.568 0 00-3.36-.096c-.96 0-2.069.032-3.328.096a.43.43 0 01-.384-.192.791.791 0 01-.128-.448c.021-.277.075-.437.16-.48.107-.064.299-.096.576-.096.555 0 .949-.096 1.184-.288.235-.192.373-.416.416-.672.043-.256.064-.661.064-1.216V13.92c0-.981-.309-1.728-.928-2.24a3.186 3.186 0 00-2.144-.8c-.981 0-1.781.235-2.4.704-.619.47-1.056.97-1.312 1.504v7.616c0 .128-.011.416-.032.864 0 .448.117.779.352.992.256.213.661.32 1.216.32h.192c.192 0 .32.032.384.096.085.064.139.224.16.48 0 .17-.043.32-.128.448a.43.43 0 01-.384.192 65.52 65.52 0 00-3.264-.096c-.875 0-1.941.032-3.2.096a.43.43 0 01-.384-.192.791.791 0 01-.128-.448c.021-.277.075-.437.16-.48.107-.064.299-.096.576-.096.704 0 1.141-.139 1.312-.416a1.75 1.75 0 00.224-.992V13.92c0-.981-.309-1.728-.928-2.24a3.067 3.067 0 00-2.112-.8c-.981 0-1.781.235-2.4.704-.619.47-1.067.97-1.344 1.504v7.616c0 .555.021.96.064 1.216s.181.48.416.672c.235.192.629.288 1.184.288h.192c.171 0 .299.032.384.096.085.064.139.224.16.48 0 .17-.043.32-.128.448a.43.43 0 01-.384.192 65.568 65.568 0 00-3.36-.096c-.96 0-2.069.032-3.328.096zm-10.176.288c-1.45 0-2.741-.341-3.872-1.024a7.636 7.636 0 01-2.656-2.752 7.604 7.604 0 01-.928-3.648c0-1.6.374-2.987 1.12-4.16.747-1.195 1.696-2.101 2.848-2.72 1.152-.64 2.315-.96 3.488-.96 1.451 0 2.742.352 3.872 1.056a7.064 7.064 0 012.624 2.752c.64 1.13.96 2.336.96 3.616 0 1.6-.384 2.997-1.152 4.192-.746 1.174-1.696 2.08-2.848 2.72-1.152.619-2.304.928-3.456.928zm0-1.184c1.451 0 2.507-.619 3.168-1.856.683-1.237 1.024-2.837 1.024-4.8 0-1.835-.352-3.328-1.056-4.48-.682-1.173-1.728-1.76-3.136-1.76-1.472 0-2.538.608-3.2 1.824-.661 1.216-.992 2.806-.992 4.768 0 1.835.342 3.35 1.024 4.544.683 1.173 1.739 1.76 3.168 1.76zm-29.878.896a.551.551 0 01-.448-.192 1.014 1.014 0 01-.128-.512c.021-.32.085-.512.192-.576.106-.064.31-.096.608-.096.618 0 1.077-.107 1.376-.32.298-.234.48-.512.544-.832.085-.341.138-.779.16-1.312V7.552c-.022-.533-.075-.96-.16-1.28a1.286 1.286 0 00-.544-.832c-.299-.235-.758-.352-1.376-.352h-.192c-.214 0-.363-.032-.448-.096-.086-.085-.139-.277-.16-.576 0-.192.042-.352.128-.48a.52.52 0 01.448-.224c1.386.064 2.645.096 3.776.096 1.28 0 2.613-.032 4-.096.192 0 .33.075.416.224.106.128.16.288.16.48-.022.32-.086.512-.192.576-.107.064-.31.096-.608.096-.619 0-1.078.117-1.376.352a1.42 1.42 0 00-.576.832c-.064.32-.107.747-.128 1.28v5.664h10.048V7.552c-.022-.533-.075-.96-.16-1.28a1.286 1.286 0 00-.544-.832c-.299-.235-.758-.352-1.376-.352h-.192c-.214 0-.374-.032-.48-.096-.086-.085-.139-.277-.16-.576 0-.192.053-.352.16-.48a.49.49 0 01.416-.224c1.386.064 2.72.096 4 .096 1.173 0 2.442-.032 3.808-.096.192 0 .33.075.416.224.106.128.16.288.16.48-.022.32-.096.512-.224.576-.107.064-.299.096-.576.096-.619 0-1.088.117-1.408.352a1.42 1.42 0 00-.576.832c-.064.32-.107.747-.128 1.28v12.704c.021.534.064.97.128 1.312.085.32.277.598.576.832.32.213.79.32 1.408.32h.192c.192 0 .33.043.416.128.106.064.17.245.192.544a.859.859 0 01-.16.512c-.086.128-.224.192-.416.192a82.279 82.279 0 00-3.84-.096c-1.259 0-2.582.032-3.968.096a.516.516 0 01-.416-.192.86.86 0 01-.16-.512c.021-.32.085-.512.192-.576.128-.064.341-.096.64-.096.618 0 1.077-.107 1.376-.32.298-.234.48-.512.544-.832.085-.341.138-.779.16-1.312v-5.664H82.518v5.664c.021.534.064.97.128 1.312.085.32.277.598.576.832.298.213.757.32 1.376.32h.192c.213 0 .362.043.448.128.085.064.138.245.16.544a.859.859 0 01-.16.512c-.086.128-.224.192-.416.192A84.8 84.8 0 0080.854 24c-1.152 0-2.422.032-3.808.096zm-25.986 0a.43.43 0 01-.384-.192.788.788 0 01-.128-.448c.022-.277.075-.437.16-.48.107-.064.3-.096.577-.096.554 0 .949-.096 1.184-.288.234-.192.373-.416.416-.672.042-.256.064-.661.064-1.216V5.12c0-.555-.022-.96-.064-1.216-.022-.256-.15-.48-.384-.672-.235-.192-.63-.288-1.184-.288-.257 0-.449-.032-.577-.096-.128-.085-.192-.267-.192-.544a.55.55 0 01.128-.352.512.512 0 01.384-.224c1.344-.192 2.496-.47 3.456-.832.3-.107.544-.17.736-.192h.096c.342 0 .513.203.513.608v14.624c.938-.192 1.706-.587 2.303-1.184L60.852 12a4.02 4.02 0 01.385-.416c.213-.235.32-.427.32-.576 0-.32-.491-.448-1.473-.384-.234-.043-.362-.235-.384-.576 0-.17.043-.32.128-.448a.484.484 0 01.384-.192c.96.064 2.134.096 3.52.096.3 0 .769-.021 1.409-.064l.735-.032a.4.4 0 01.352.192c.107.128.16.277.16.448-.02.256-.074.416-.16.48-.085.064-.213.096-.383.096-.79 0-1.44.139-1.953.416-.512.277-1.109.768-1.792 1.472l-2.688 2.752c.555.747 1.729 2.112 3.52 4.096.811.896 1.227 1.365 1.248 1.408.768.81 1.334 1.355 1.696 1.632.384.277.854.437 1.408.48.043 0 .128.01.256.032.15 0 .256.043.32.128.086.085.129.224.129.416 0 .427-.171.64-.513.64-.192 0-.511-.021-.96-.064-.448-.021-1.546-.032-3.296-.032-.64-.661-2.122-2.347-4.447-5.056a59.765 59.765 0 01-1.025-1.216c-.618-.661-1.247-.96-1.887-.896v3.872c0 .555.01.96.032 1.216.042.256.18.48.416.672.234.192.629.288 1.184.288h.191c.193 0 .331.032.416.096.086.064.14.224.16.48 0 .17-.053.32-.16.448a.402.402 0 01-.352.192 65.593 65.593 0 00-3.36-.096c-.96 0-2.069.032-3.328.096zm-8.147.288c-2.176 0-3.883-.693-5.12-2.08-1.237-1.386-1.856-3.242-1.856-5.568.043-1.45.395-2.741 1.056-3.872a7.305 7.305 0 012.72-2.688c1.13-.661 2.379-1.013 3.744-1.056 1.365 0 2.539.256 3.52.768 1.003.512 1.504 1.365 1.504 2.56 0 .662-.203 1.248-.608 1.76-.384.49-.907.736-1.568.736-.405 0-.757-.107-1.056-.32-.277-.213-.416-.395-.416-.544 0-.021.096-.117.288-.288a2.86 2.86 0 00.512-.608c.17-.256.256-.544.256-.864 0-.661-.245-1.162-.736-1.504-.47-.341-1.045-.512-1.728-.512-1.643 0-2.763.608-3.36 1.824-.576 1.195-.864 2.699-.864 4.512 0 1.792.405 3.264 1.216 4.416.81 1.152 1.888 1.728 3.232 1.728.917 0 1.696-.192 2.336-.576.661-.405 1.259-1.013 1.792-1.824.064-.107.17-.16.32-.16.107 0 .224.032.352.096a.52.52 0 01.256.224.618.618 0 01.096.32c0 .064-.032.15-.096.256a8.06 8.06 0 01-2.624 2.4c-1.045.576-2.101.864-3.168.864zm-18.818 0c-1.28 0-2.315-.363-3.104-1.088-.79-.725-1.184-1.632-1.184-2.72 0-1.344.448-2.346 1.344-3.008.896-.683 1.962-1.12 3.2-1.312 1.237-.213 2.837-.373 4.8-.48v-2.528c0-1.045-.267-1.834-.8-2.368-.512-.555-1.344-.832-2.496-.832a2.63 2.63 0 00-1.728.608c-.49.405-.736.95-.736 1.632 0 .341.074.63.224.864.17.214.341.395.512.544.192.15.288.235.288.256 0 .128-.139.299-.416.512-.256.192-.576.288-.96.288-.64 0-1.152-.235-1.536-.704-.363-.47-.544-1.024-.544-1.664 0-1.11.49-1.93 1.472-2.464 1.002-.533 2.208-.8 3.616-.8 1.75 0 3.168.33 4.256.992 1.11.662 1.664 1.888 1.664 3.68v7.456c.021.448.16.875.416 1.28s.672.608 1.248.608c.17 0 .288.032.352.096.085.064.128.203.128.416 0 .256-.203.438-.608.544a3.624 3.624 0 01-1.152.192c-.81 0-1.526-.235-2.144-.704-.619-.47-.97-1.099-1.056-1.888-.448.832-1.142 1.472-2.08 1.92a6.69 6.69 0 01-2.976.672zm1.024-1.728c.725 0 1.397-.181 2.016-.544a4.058 4.058 0 001.472-1.472 4.21 4.21 0 00.544-2.112v-1.824c-2.24.17-3.819.534-4.736 1.088-.918.555-1.376 1.45-1.376 2.688 0 1.45.693 2.176 2.08 2.176zM.92 24.096a.551.551 0 01-.448-.192 1.014 1.014 0 01-.128-.512c.021-.32.085-.512.192-.576.107-.064.31-.096.608-.096.619 0 1.077-.107 1.376-.32.299-.234.48-.512.544-.832.085-.341.139-.779.16-1.312V7.552c-.021-.533-.075-.96-.16-1.28a1.286 1.286 0 00-.544-.832c-.299-.235-.757-.352-1.376-.352H.952c-.213 0-.363-.032-.448-.096-.085-.085-.139-.277-.16-.576a.85.85 0 01.128-.48.52.52 0 01.448-.224c1.387.064 2.645.096 3.776.096h4.512c1.173 0 2.123.085 2.848.256a6.35 6.35 0 011.952.8c.555.363.992.864 1.312 1.504.32.619.48 1.301.48 2.048 0 1.323-.437 2.379-1.312 3.168a6.8 6.8 0 01-3.008 1.568v.096c1.11 0 2.112.224 3.008.672.917.427 1.621 1.014 2.112 1.76.512.726.768 1.515.768 2.368 0 1.45-.448 2.624-1.344 3.52-.875.896-1.984 1.536-3.328 1.92a15.543 15.543 0 01-4.128.544L4.728 24a83.14 83.14 0 00-3.808.096zm6.816-11.488c.853 0 1.59-.064 2.208-.192.64-.128 1.205-.47 1.696-1.024.49-.554.736-1.419.736-2.592 0-2.539-1.248-3.808-3.744-3.808h-2.24v7.616h1.344zm.96 10.144c1.579-.021 2.837-.405 3.776-1.152.96-.768 1.44-2.016 1.44-3.744-.107-1.152-.65-2.101-1.632-2.848-.96-.746-2.485-1.12-4.576-1.12H6.392v6.368c0 .726.064 1.27.192 1.632.15.341.373.576.672.704.32.107.8.16 1.44.16z" fill="#000"/></svg>