<svg viewBox="0 0 243 243" xmlns="http://www.w3.org/2000/svg" xmlns:xlink="http://www.w3.org/1999/xlink"><style>:root&gt;svg{display:none}:root&gt;svg:target{display:block}</style><svg fill="none" viewBox="0 0 192 199" id="sprite--3d" xmlns="http://www.w3.org/2000/svg"><path d="M96 199c53.019 0 96-42.981 96-96 0-53.02-42.981-96-96-96C42.98 7 0 49.98 0 103c0 53.019 42.98 96 96 96z" fill="#F2CF4E"/><path d="M106.075 137.225h-5.53a3.688 3.688 0 00-3.683 3.684v16.661a3.687 3.687 0 003.683 3.683h5.53c5.086 0 9.223-4.134 9.223-9.217v-5.594c0-5.082-4.137-9.217-9.223-9.217zm3.762 14.812a3.763 3.763 0 01-3.762 3.755h-3.752v-13.105h3.752a3.764 3.764 0 013.762 3.756v5.594zm-22.266-14.812h-9.134a2.731 2.731 0 000 5.462h8.492v3.822h-8.492a2.73 2.73 0 100 5.461h8.492v3.822h-8.492a2.73 2.73 0 100 5.461h9.134a4.826 4.826 0 004.82-4.821v-14.386a4.826 4.826 0 00-4.82-4.821z" fill="#000"/><path d="M187.836 155.316l-4.598-16.139a2.73 2.73 0 00-5.252 1.497l3.243 11.382-32.619-18.17c.012-.396.008-20.724.008-20.724a2.73 2.73 0 10-5.461 0s.01 20.882-.03 21.225c-.108.08-13.391 7.497-13.391 7.497-3.202-14.935-15.944-26.369-31.509-27.576v-7.431l44.93-25.02v18.784a2.73 2.73 0 105.461 0V76.654c-.04-1.365-.756-2.485-2.149-3.36L98.228 46.432V9.362l8.362 8.369c.534.533 1.233.8 1.932.8a2.731 2.731 0 001.932-4.66L98.608 2.017A4.373 4.373 0 0095.497.723a4.35 4.35 0 00-3.099 1.282L80.54 13.87a2.73 2.73 0 103.863 3.86l8.363-8.368v37.069L73.996 56.88a2.73 2.73 0 002.656 4.771l18.845-10.49 45.779 25.493-45.779 25.492L49.72 76.649l17.377-9.745a2.73 2.73 0 10-2.672-4.764l-19.89 11.155c-1.369.763-2.153 1.991-2.15 3.369l.001.016s-.004 56.818.007 57.206L9.774 152.052l3.235-11.38a2.73 2.73 0 00-5.254-1.493l-4.591 16.152a4.361 4.361 0 00.387 3.308 4.397 4.397 0 002.631 2.09l16.128 4.6a2.732 2.732 0 001.498-5.251l-11.387-3.249 32.311-17.994c.347.254 15.782 8.885 15.782 8.885a35.5 35.5 0 00-.034 1.52c0 19.32 15.709 35.038 35.018 35.038s35.017-15.718 35.017-35.038c0-.509-.013-1.016-.034-1.52 0 0 15.446-8.633 15.791-8.886l32.306 17.997-11.381 3.247a2.73 2.73 0 101.498 5.252l16.129-4.601a4.41 4.41 0 002.621-2.09 4.384 4.384 0 00.391-3.323zM48.588 134.827a7.339 7.339 0 01-.714-.439c-.038-.341-.027-52.53-.027-52.53l44.92 25.019v7.431c-15.565 1.207-28.307 12.64-31.51 27.575l-12.669-7.056zm46.909 43.989c-16.297 0-29.556-13.268-29.556-29.576 0-16.309 13.259-29.577 29.556-29.577 16.298 0 29.556 13.268 29.556 29.577 0 16.308-13.258 29.576-29.556 29.576z" fill="#000"/></svg><svg fill="none" viewBox="0 0 42 23" id="sprite--arrow" xmlns="http://www.w3.org/2000/svg"><path d="M41 1L21 21 1 1" stroke="#000" stroke-width="2"/></svg><svg fill="none" viewBox="0 0 40 40" id="sprite--fb" xmlns="http://www.w3.org/2000/svg"><path d="M22.331 14.657h1.552v-2.544a21.267 21.267 0 00-2.26-.113c-2.238 0-3.771 1.325-3.771 3.76V18h-2.47v2.844h2.47V28h3.027v-7.155h2.37L23.625 18h-2.747v-1.96c.001-.822.236-1.384 1.453-1.384z" fill="#fff"/><circle cx="20" cy="20" r="19.5" stroke="#fff"/></svg><svg fill="none" viewBox="0 0 40 40" id="sprite--insta" xmlns="http://www.w3.org/2000/svg"><path d="M28.982 16.292c-.042-.956-.196-1.614-.418-2.184a4.393 4.393 0 00-1.04-1.596 4.431 4.431 0 00-1.594-1.037c-.573-.222-1.227-.377-2.183-.419-.964-.045-1.27-.056-3.714-.056-2.443 0-2.75.01-3.71.053-.956.042-1.613.197-2.183.418a4.392 4.392 0 00-1.596 1.041 4.43 4.43 0 00-1.038 1.593c-.221.573-.376 1.227-.418 2.183-.046.964-.056 1.27-.056 3.714s.01 2.75.052 3.71c.043.956.197 1.613.419 2.183a4.439 4.439 0 001.04 1.596c.45.458.996.813 1.594 1.038.573.221 1.227.376 2.183.418.96.043 1.266.053 3.71.053s2.75-.01 3.71-.053c.956-.042 1.614-.197 2.183-.418a4.604 4.604 0 002.634-2.634c.222-.573.376-1.227.418-2.183.043-.96.053-1.266.053-3.71s-.003-2.75-.046-3.71zm-1.62 7.35c-.04.878-.187 1.353-.31 1.67a2.986 2.986 0 01-1.709 1.708c-.316.123-.795.271-1.67.31-.95.042-1.234.052-3.636.052s-2.69-.01-3.636-.052c-.879-.039-1.354-.187-1.67-.31a2.772 2.772 0 01-1.034-.671 2.8 2.8 0 01-.672-1.034c-.123-.317-.27-.795-.309-1.67-.042-.95-.053-1.235-.053-3.636 0-2.402.01-2.69.053-3.636.039-.88.186-1.354.31-1.67.144-.39.372-.746.675-1.034a2.794 2.794 0 011.033-.672c.317-.123.795-.27 1.67-.31.95-.041 1.235-.052 3.636-.052 2.406 0 2.69.01 3.636.053.88.039 1.354.186 1.67.31.39.143.746.372 1.034.67.3.293.528.644.672 1.035.123.316.27.794.31 1.67.042.95.052 1.234.052 3.636 0 2.401-.01 2.683-.053 3.632z" fill="#fff"/><path d="M20.033 15.378a4.625 4.625 0 000 9.248 4.625 4.625 0 000-9.248zm0 7.623a3 3 0 11.001-6 3 3 0 010 6zm5.887-7.806a1.08 1.08 0 11-2.16 0 1.08 1.08 0 012.16 0z" fill="#fff"/><circle cx="20" cy="20" r="19.5" stroke="#fff"/></svg><svg fill="none" viewBox="0 0 210 192" id="sprite--msg" xmlns="http://www.w3.org/2000/svg"><path d="M104 192c53.019 0 96-42.981 96-96 0-53.02-42.981-96-96-96C50.98 0 8 42.98 8 96c0 53.019 42.98 96 96 96z" fill="#F2CF4E"/><path d="M178.5 42.188h-49v-3.5c-.021-17.39-14.111-31.48-31.5-31.5H31.5C14.111 7.207.02 21.297 0 38.688v42c.02 17.388 14.111 31.479 31.5 31.5H35v28a3.5 3.5 0 005.975 2.474l30.474-30.474H80.5v3.5c.02 17.388 14.111 31.479 31.5 31.5h19.551l37.474 37.474a3.5 3.5 0 005.975-2.474v-35h3.5c17.389-.021 31.479-14.112 31.5-31.5v-42c-.021-17.39-14.111-31.48-31.5-31.5zm-108.5 63c-.928 0-1.818.369-2.475 1.025L42 131.738v-23.05a3.5 3.5 0 00-3.5-3.5h-7c-13.525-.016-24.485-10.976-24.5-24.5v-42c.015-13.525 10.975-24.485 24.5-24.5H98c13.525.015 24.485 10.975 24.5 24.5v3.5H112c-17.389.02-31.48 14.11-31.5 31.5v31.5H70zm133 10.5c-.015 13.524-10.975 24.484-24.5 24.5h-7a3.5 3.5 0 00-3.5 3.5v30.05l-32.525-32.525a3.503 3.503 0 00-2.475-1.025h-21c-13.525-.016-24.485-10.976-24.5-24.5v-42c.015-13.525 10.975-24.485 24.5-24.5h66.5c13.525.015 24.485 10.975 24.5 24.5v42z" fill="#000"/><path d="M185.5 70.188H105a3.5 3.5 0 000 7h80.5a3.5 3.5 0 000-7zm0 21H105a3.5 3.5 0 100 6.999h80.5a3.5 3.5 0 100-6.999zm0 21H105a3.5 3.5 0 100 7h80.5a3.5 3.5 0 000-7zm-164.5-70h73.5a3.5 3.5 0 000-7H21a3.5 3.5 0 000 7zm52.5 14H21a3.5 3.5 0 000 7h52.5a3.5 3.5 0 000-7zm-3.5 21H21a3.5 3.5 0 000 7h49a3.5 3.5 0 000-7z" fill="#000"/></svg><svg fill="none" viewBox="0 0 243 243" id="sprite--trucj" xmlns="http://www.w3.org/2000/svg"><circle cx="121" cy="122" r="96" fill="#F2CF4E"/><path d="M186.3 159.975c13.401 0 24.3 10.899 24.3 24.3 0 13.402-10.899 24.3-24.3 24.3-13.402 0-24.3-10.898-24.3-24.3 0-13.401 10.899-24.3 24.3-24.3zm0 40.5c8.934 0 16.2-7.266 16.2-16.2s-7.266-16.2-16.2-16.2-16.2 7.266-16.2 16.2 7.266 16.2 16.2 16.2zm-137.7-40.5c13.402 0 24.3 10.899 24.3 24.3 0 13.402-10.898 24.3-24.3 24.3-13.401 0-24.3-10.898-24.3-24.3 0-13.401 10.899-24.3 24.3-24.3zm0 40.5c8.934 0 16.2-7.266 16.2-16.2s-7.266-16.2-16.2-16.2-16.2 7.266-16.2 16.2 7.266 16.2 16.2 16.2z" fill="#000"/><path d="M.644 137.534l36.45-56.7a4.051 4.051 0 013.406-1.859h44.55c2.24 0 4.05 1.814 4.05 4.05v101.25c0 2.239-1.81 4.05-4.05 4.05h-16.2v-8.101H81V87.075H42.712L8.1 140.916v39.309h20.25v8.1H4.05c-2.24 0-4.05-1.81-4.05-4.05v-44.55c0-.774.223-1.539.644-2.191z" fill="#000"/><path d="M64.8 131.625v-28.35H32.4v-8.1h36.45c2.24 0 4.05 1.814 4.05 4.05v36.45a4.046 4.046 0 01-4.05 4.049H8.1v-8.1h56.7v.001zm20.25-81h153.9a4.051 4.051 0 014.05 4.05v129.6c0 2.24-1.814 4.05-4.05 4.05h-32.4v-8.1h28.35v-121.5H89.1v121.5h76.95v8.1h-81c-2.24 0-4.05-1.81-4.05-4.05v-129.6c0-2.235 1.81-4.05 4.05-4.05z" fill="#000"/><path d="M214.65 164.025h24.3v8.1h-24.3v-8.1zm-125.55 0h68.85v8.1H89.1v-8.1zm-85.05 0h16.2v8.1H4.05v-8.1zm81-97.2H226.8v8.1H85.05v-8.1zm97.2 113.4h8.1v8.1h-8.1v-8.1zm-137.7 0h8.1v8.1h-8.1v-8.1zm125.55-145.8h56.7v8.1h-56.7v-8.1zm64.8 0h8.1v8.1h-8.1v-8.1z" fill="#000"/></svg><svg fill="none" viewBox="0 0 40 40" id="sprite--tw" xmlns="http://www.w3.org/2000/svg"><circle cx="20" cy="20" r="19.5" stroke="#fff"/><path d="M29.885 13.687c-.101-.102-.271-.136-.407-.102l-.679.237a4.65 4.65 0 00.849-1.46c.068-.17.034-.305-.068-.407a.361.361 0 00-.407-.068c-.951.408-1.766.747-2.445.95 0 .035-.034 0-.068 0-.543-.305-1.867-.984-2.817-.984-2.41.034-4.345 2.071-4.345 4.55v.135c-3.53-.679-5.466-1.697-7.57-3.904l-.34-.34-.204.408c-1.154 2.207-.339 4.21.985 5.567-.611-.101-1.018-.305-1.392-.61-.136-.102-.305-.136-.475-.035-.136.068-.204.272-.17.442.475 1.595 1.663 2.885 2.954 3.666-.611 0-1.12-.068-1.63-.407a.479.479 0 00-.475.034c-.136.101-.204.271-.136.44.611 1.732 1.8 2.649 3.7 2.886-.984.577-2.274 1.053-4.277 1.087a.483.483 0 00-.441.305c-.068.204 0 .373.136.51 1.222.984 3.937 1.56 7.298 1.56 5.975 0 10.863-5.329 10.863-11.88v-.102c.747-.374 1.358-1.087 1.663-2.071a.446.446 0 00-.102-.407zM27.85 15.62l-.204.068v.578c0 6.178-4.583 11.202-10.184 11.202-3.09 0-5.16-.51-6.28-1.053 2.342-.17 3.7-.916 4.752-1.73l.849-.612h-1.018c-1.935 0-3.123-.543-3.802-1.833.61.204 1.256.204 1.969.17.271-.034.543-.034.814-.034l.102-.68c-1.29-.372-2.817-1.527-3.564-3.088.679.305 1.425.373 2.104.373h1.053l-.849-.61c-.713-.51-2.817-2.31-1.8-4.89 2.173 2.14 4.244 3.124 7.978 3.803l.408.068v-.95c0-2.105 1.63-3.837 3.666-3.87.78-.035 2.07.678 2.444.882.204.102.408.136.611.068.51-.17 1.12-.408 1.8-.68-.306.51-.714.985-1.257 1.427-.136.101-.17.305-.101.475.067.17.271.238.44.17l1.325-.442c-.238.442-.611.95-1.256 1.188z" fill="#fff"/></svg><svg fill="none" viewBox="0 0 40 40" id="sprite--you" xmlns="http://www.w3.org/2000/svg"><path d="M23.386 19.011l-4.86-2.659a.885.885 0 00-.884.015.885.885 0 00-.437.768v5.273c0 .317.162.604.434.766a.89.89 0 00.881.02l4.86-2.613a.893.893 0 00.006-1.57zm-4.892 2.734v-3.941l3.632 1.988-3.632 1.953z" fill="#fff"/><path d="M30.838 15.597v-.01c-.02-.177-.205-1.752-.97-2.553-.886-.943-1.89-1.057-2.372-1.112a7.21 7.21 0 01-.109-.013l-.038-.004c-2.909-.212-7.301-.24-7.345-.24h-.008c-.044 0-4.436.028-7.37.24l-.04.004-.103.012c-.477.055-1.47.17-2.357 1.146-.73.793-.94 2.334-.962 2.507l-.002.023A45.694 45.694 0 009 19.186v1.646c0 1.761.155 3.515.162 3.59l.001.01c.019.174.204 1.72.966 2.522.832.91 1.885 1.031 2.45 1.096.09.01.167.02.22.028l.05.007c1.68.16 6.945.239 7.168.242h.013c.044 0 4.437-.029 7.345-.24l.038-.005.124-.013c.474-.05 1.462-.155 2.337-1.118.73-.793.94-2.335.962-2.508l.002-.022c.007-.074.162-1.828.162-3.589v-1.646a45.48 45.48 0 00-.162-3.59zm-1.127 5.235c0 1.63-.143 3.309-.156 3.463-.055.424-.277 1.4-.633 1.786-.547.602-1.11.662-1.521.706a6.99 6.99 0 00-.137.015c-2.813.203-7.04.235-7.235.236-.218-.003-5.406-.083-7.034-.234a5.596 5.596 0 00-.269-.035c-.482-.055-1.141-.13-1.649-.688l-.011-.013c-.35-.364-.566-1.276-.62-1.768a45.064 45.064 0 01-.157-3.468v-1.646c0-1.628.142-3.305.156-3.462.065-.5.292-1.417.632-1.787.565-.62 1.16-.69 1.554-.735.038-.005.073-.008.105-.013 2.854-.204 7.111-.235 7.264-.236.153.001 4.408.032 7.237.236l.113.014c.405.046 1.017.116 1.58.715l.004.005c.35.364.566 1.292.62 1.794.01.11.157 1.812.157 3.469v1.646z" fill="#fff"/><circle cx="20" cy="20" r="19.5" stroke="#fff"/></svg></svg>